<svg width="14" height="17" viewBox="0 0 14 17" fill="none" xmlns="http://www.w3.org/2000/svg">
<path d="M12.7918 5.94352C12.2709 6.26242 11.8394 6.70827 11.5378 7.23933C11.2361 7.77039 11.0741 8.36931 11.067 8.98002C11.069 9.66737 11.2727 10.339 11.6527 10.9118C12.0327 11.4845 12.5724 11.9332 13.2049 12.2023C12.9555 13.0069 12.5864 13.7694 12.1101 14.4641C11.4285 15.4453 10.7158 16.4264 9.63137 16.4264C8.54697 16.4264 8.26807 15.7964 7.01837 15.7964C5.79967 15.7964 5.36587 16.4471 4.37437 16.4471C3.38287 16.4471 2.69097 15.5382 1.89567 14.4228C0.845141 12.8603 0.267782 11.0278 0.232872 9.14522C0.232872 6.04682 2.24687 4.40472 4.22977 4.40472C5.28327 4.40472 6.16117 5.09662 6.82217 5.09662C7.45217 5.09662 8.43337 4.36332 9.63137 4.36332C10.2473 4.34743 10.8578 4.48324 11.4089 4.7588C11.96 5.03436 12.4349 5.44121 12.7918 5.94352ZM9.06337 3.05172C9.59147 2.43048 9.89042 1.64685 9.91027 0.831718C9.91117 0.724261 9.90078 0.617007 9.87927 0.511719C8.97213 0.600332 8.13328 1.03269 7.53477 1.72012C7.00158 2.3166 6.69137 3.07931 6.65687 3.87862C6.65727 3.97583 6.66766 4.07274 6.68787 4.16782C6.75939 4.18134 6.83199 4.18827 6.90477 4.18852C7.32285 4.15525 7.72979 4.03732 8.10087 3.8419C8.47195 3.64647 8.79942 3.37763 9.06337 3.05172Z" fill="white" fill-opacity="0.8"/>
</svg>
