<svg width="15" height="15" viewBox="0 0 15 15" fill="none" xmlns="http://www.w3.org/2000/svg">
<path d="M14.3762 13.4634L10.5062 9.59343C11.2072 8.66443 11.6282 7.51243 11.6282 6.26143C11.6282 3.20143 9.1392 0.711426 6.0782 0.711426C3.0182 0.711426 0.528198 3.20143 0.528198 6.26143C0.528198 9.32243 3.0182 11.8114 6.0782 11.8114C7.3292 11.8114 8.4812 11.3904 9.4102 10.6894L13.2802 14.5594C13.4312 14.7104 13.6302 14.7874 13.8282 14.7874C14.0262 14.7874 14.2242 14.7114 14.3762 14.5594C14.6792 14.2564 14.6792 13.7664 14.3762 13.4634ZM1.6282 6.26143C1.6282 3.80743 3.6252 1.81143 6.0782 1.81143C8.5322 1.81143 10.5282 3.80843 10.5282 6.26143C10.5282 8.71443 8.5322 10.7114 6.0782 10.7114C3.6242 10.7114 1.6282 8.71543 1.6282 6.26143Z" fill="white" fill-opacity="0.8"/>
</svg>
