<svg width="14" height="16" viewBox="0 0 14 16" fill="none" xmlns="http://www.w3.org/2000/svg">
<path d="M11.0099 3.28951H9.9894C9.88 2.47849 9.48365 1.73351 8.87219 1.1896C8.26073 0.645692 7.47464 0.338855 6.6564 0.324707C5.83816 0.338855 5.05207 0.645692 4.44061 1.1896C3.82915 1.73351 3.4328 2.47849 3.3234 3.28951H2.3034C1.74219 3.28988 1.20406 3.51293 0.807148 3.90969C0.410237 4.30645 0.186984 4.8445 0.186401 5.40571V13.1212C0.186904 13.6824 0.410006 14.2204 0.806747 14.6172C1.20349 15.014 1.74146 15.2373 2.3026 15.2379H11.0096C11.5708 15.2374 12.109 15.0143 12.5058 14.6174C12.9027 14.2206 13.1259 13.6825 13.1264 13.1212V5.40571C13.1258 4.84458 12.9026 4.30661 12.5058 3.90987C12.109 3.51312 11.571 3.29001 11.0099 3.28951ZM6.6564 1.42431C7.18381 1.43577 7.69152 1.62688 8.09558 1.96603C8.49965 2.30518 8.77588 2.77207 8.8786 3.28951H4.4342C4.53692 2.77207 4.81315 2.30518 5.21722 1.96603C5.62128 1.62688 6.12899 1.43577 6.6564 1.42431ZM12.0264 13.1212C12.0261 13.3908 11.9189 13.6492 11.7284 13.8399C11.5378 14.0306 11.2794 14.1379 11.0098 14.1383H2.3029C2.03334 14.1379 1.77496 14.0305 1.58441 13.8399C1.39386 13.6492 1.28669 13.3908 1.2864 13.1212V5.40571C1.28672 5.13619 1.39393 4.87779 1.58451 4.68721C1.77509 4.49663 2.03348 4.38942 2.303 4.38911H11.01C11.2795 4.38948 11.5378 4.49671 11.7284 4.68728C11.9189 4.87786 12.0261 5.13622 12.0264 5.40571V13.1212Z" fill="white" fill-opacity="0.8"/>
</svg>
